# AST/ASF file generated using VICON BodyLanguage
# -----------------------------------------------
:version 1.10
:name VICON
:units
  mass 1.0
  length 0.45
  angle deg
:documentation
   .ast/.asf automatically generated from VICON data using
   VICON BodyBuilder and BodyLanguage model FoxedUp or BRILLIANT.MOD
:root
   order TX TY TZ RX RY RZ
   axis XYZ
   position 0 0 0  
   orientation 0 0 0 
:bonedata
  begin
     id 1 
     name lhipjoint
     direction 0.528046 -0.759594 0.379717 
     length 2.39752 
     axis 0 0 0  XYZ
  end
  begin
     id 2 
     name lfemur
     direction 0.34202 -0.939693 0  
     length 7.31175  
     axis 0 0 20  XYZ
    dof rx ry rz
    limits (-160.0 20.0)
           (-70.0 70.0)
           (-60.0 70.0)
  end
  begin
     id 3 
     name ltibia
     direction 0.34202 -0.939693 0   
     length 7.52482   
     axis 0 0 20   XYZ
    dof rx
    limits (-10.0 170.0)
  end
  begin
     id 4 
     name lfoot
     direction 0.0675379 -0.185559 0.980309   
     length 2.00961   
     axis -90 7.62852e-016 20   XYZ
    dof rx rz
    limits (-45.0 90.0)
           (-70.0 20.0)
  end
  begin
     id 5 
     name ltoes
     direction 1.5352e-011 -4.22286e-011 1   
     length 1.01383   
     axis -90 7.62852e-016 20   XYZ
    dof rx
    limits (-90.0 20.0)
  end
  begin
     id 6 
     name rhipjoint
     direction -0.510274 -0.769251 0.384544   
     length 2.36742  
     axis 0 0 0  XYZ 
  end
  begin
     id 7 
     name rfemur
     direction -0.34202 -0.939693 0   
     length 7.45325   
     axis 0 0 -20   XYZ
    dof rx ry rz
    limits (-160.0 20.0)
           (-70.0 70.0)
           (-70.0 60.0)
  end
  begin
     id 8 
     name rtibia
     direction -0.34202 -0.939693 0   
     length 7.49587   
     axis 0 0 -20   XYZ
    dof rx
    limits (-10.0 170.0)
 end
 begin
     id 9 
     name rfoot
     direction -0.106475 -0.292536 0.950308   
     length 2.20898  
     axis -90 -7.62852e-016 -20   XYZ
    dof rx rz
    limits (-45.0 90.0)
           (-20.0 70.0)
  end
  begin
     id 10 
     name rtoes
     direction -1.53597e-011 -4.22023e-011 1   
     length 1.10065   
     axis -90 -7.62852e-016 -20   XYZ
    dof rx
    limits (-90.0 20.0)
  end
  begin
     id 11 
     name lowerback
     direction 0.0260024 0.998026 -0.0571652   
     length 2.11214   
     axis 0 0 0   XYZ
    dof rx ry rz
    limits (-20.0 45.0)
           (-30.0 30.0)
           (-30.0 30.0)
  end
  begin
     id 12 
     name upperback
     direction 0.0216202 0.999542 -0.0211766   
     length 2.11689   
     axis 0 0 0   XYZ
    dof rx ry rz
    limits (-20.0 45.0)
           (-30.0 30.0)
           (-30.0 30.0)
  end
  begin
     id 13 
     name thorax
     direction 0.00883312 0.999944 0.00589057   
     length 2.11821   
     axis 0 0 0   XYZ
    dof rx ry rz
    limits (-20.0 45.0)
           (-30.0 30.0)
           (-30.0 30.0)
  end
  begin
     id 14 
     name lowerneck
     direction -0.059386 0.994433 0.0870401   
     length 1.81176   
     axis 0 0 0   XYZ
    dof rx ry rz
    limits (-20.0 45.0)
           (-30.0 30.0)
           (-30.0 30.0)
  end
  begin
     id 15 
     name upperneck
     direction 0.0506457 0.97328 -0.223967   
     length 1.82382   
     axis 0 0 0   XYZ
    dof rx ry rz
    limits (-20.0 45.0)
           (-30.0 30.0)
           (-30.0 30.0)
  end
  begin
     id 16
     name head
     direction 0.0205902 0.996147 -0.0852487  
     length 1.84805  
     axis 0 0 0   XYZ
    dof rx ry rz
    limits (-20.0 45.0)
           (-30.0 30.0)
           (-30.0 30.0)
  end
  begin
     id 17 
     name lclavicle
     direction 0.949493 0.303881 -0.0782325  
     length 3.60584  
     axis 0 0 0   XYZ
    dof ry rz
    limits (-20.0 10.0)
           (0.0 20.0)
  end
  begin
     id 18 
     name lhumerus
     direction 1 -4.48965e-011 1.48782e-027   
     length 4.95681   
     axis 180 -30 -90   XYZ
    dof rx ry rz
    limits (-60.0 90.0)
           (-90.0 90.0)
           (-90.0 90.0)
  end
  begin
     id 19
     name lradius
     direction 1 -4.48952e-011 2.06528e-027   
     length 3.40915   
     axis 180 -30 -90   XYZ
    dof rx
    limits (-10.0 170.0)
  end
  begin
     id 20
     name lwrist
     direction 1 -4.48964e-011 1.28021e-027   
     length 1.70457   
     axis -1.61767e-015 90 90   XYZ
    dof ry
    limits (-180.0 0.0)
 end
  begin
     id 21 
     name lhand
     direction 1 -4.49094e-011 2.54887e-027   
     length 0.616403   
     axis -1.63363e-015 90 90   XYZ
    dof rx rz
    limits (-90.0 90.0)
           (-45.0 45.0)
  end
  begin
     id 22 
     name lfingers
     direction 1 -4.49002e-011 5.11407e-027   
     length 0.49696   
     axis -3.26723e-015 90 90   XYZ
    dof rx
    limits (0.0 90.0)
  end
  begin
     id 23
     name lthumb
     direction 0.707107 -6.34998e-011 0.707107   
     length 0.713539   
     axis -90 45 -2.25915e-014   XYZ
    dof rx rz
    limits (-45.0 45.0)
           (-45.0 45.0)
  end
  begin
     id 24 
     name rclavicle
     direction -0.937751 0.334612 -0.0930482   
     length 3.46287  
     axis 0 0 0   XYZ 
    dof ry rz
    limits (-10.0 20.0)
           (-20.0 0.0)
  end
  begin
     id 25 
     name rhumerus
     direction -1 -4.48962e-011 3.59972e-027  
     length 5.352   
     axis 180 30 90   XYZ
    dof rx ry rz
    limits (-90.0 60.0)
           (-90.0 90.0)
           (-90.0 90.0)
  end
  begin
     id 26 
     name rradius
     direction -1 -4.48987e-011 -3.76925e-027   
     length 3.43721   
     axis 180 30 90   XYZ
    dof rx
    limits (-10.0 170.0)
  end
  begin
     id 27 
     name rwrist
     direction -1 -4.48943e-011 1.28112e-027   
     length 1.7186   
     axis -1.61767e-015 -90 -90   XYZ
    dof ry
    limits (-180.0 0.0)
  end
  begin
     id 28
     name rhand
     direction -1 -4.49027e-011 2.55483e-027   
     length 0.72009   
     axis -1.63363e-015 -90 -90   XYZ
    dof rx rz
    limits (-90.0 90.0)
           (-45.0 45.0)
  end
  begin
     id 29
     name rfingers
     direction -1 -4.48827e-011 5.14506e-027   
     length 0.580555   
     axis -3.26723e-015 -90 -90   XYZ
    dof rx
    limits (0.0 90.0)
  end
  begin
     id 30
     name rthumb
     direction -0.707107 -6.34936e-011 0.707107   
     length 0.833564   
     axis -90 -45 2.25915e-014   XYZ
    dof rx rz
    limits (-45.0 45.0)
           (-45.0 45.0)
  end
:hierarchy
  begin
    root lhipjoint rhipjoint lowerback
    lhipjoint lfemur
    lfemur ltibia
    ltibia lfoot
    lfoot ltoes
    rhipjoint rfemur
    rfemur rtibia
    rtibia rfoot
    rfoot rtoes
    lowerback upperback
    upperback thorax
    thorax lowerneck lclavicle rclavicle
    lowerneck upperneck
    upperneck head
    lclavicle lhumerus
    lhumerus lradius
    lradius lwrist
    lwrist lhand lthumb
    lhand lfingers
    rclavicle rhumerus
    rhumerus rradius
    rradius rwrist
    rwrist rhand rthumb
    rhand rfingers
  end

#!OML:ASF H:\Terrain\Patient Classification 1\Terrain2\Thursday\justin.ASF
:FULLY-SPECIFIED
:DEGREES
412
root -2.39654 23.4176 -1.78806 -35.4121 83.5105 -35.6628
lowerback 6.86324 1.28274 3.3123
upperback 2.52752 2.07278 3.04555
thorax -1.23557 1.07716 1.116
lowerneck -13.5751 -2.1205 -9.01589
upperneck 40.2934 1.3624 0.934544
head 16.9517 -0.0686173 2.46877
rclavicle -8.94531e-016 7.95139e-016
rhumerus -30.5184 -8.42217 -79.7434
rradius 32.3516
rwrist -10.8443
rhand -20.9545 12.5032
rfingers 7.12502
rthumb 5.41827 -17.4076
lclavicle -8.94531e-016 7.95139e-016
lhumerus -35.5112 11.8175 83.5013
lradius 30.975
lwrist 2.47299
lhand -20.3409 21.8663
lfingers 7.12502
lthumb 6.01067 51.761
rfemur -12.1836 -4.6272 23.3274
rtibia 39.3359
rfoot -24.1297 1.10869
rtoes 14.9391
lfemur -16.7438 -3.11074 -15.4634
ltibia 37.3471
lfoot -13.9572 -21.3267
ltoes 25.9784
413
root -2.37348 23.4166 -1.76152 -36.2984 83.3878 -36.5862
lowerback 6.59081 1.23227 3.57991
upperback 2.49037 2.00956 3.08397
thorax -1.11476 1.0475 1.01752
lowerneck -13.3485 -2.02687 -8.81177
upperneck 40.198 1.46638 0.79048
head 16.8346 -0.00772959 2.38084
rclavicle -1.54058e-014 -1.51076e-014
rhumerus -30.5648 -8.31207 -79.7245
rradius 32.5572
rwrist -11.0237
rhand -20.9802 12.7744
rfingers 7.12502
rthumb 5.39343 -17.137
lclavicle -1.54058e-014 -1.51076e-014
lhumerus -35.7528 12.2057 83.3645
lradius 30.6697
lwrist 2.29573
lhand -20.8425 22.1411
lfingers 7.12502
lthumb 5.52637 52.0491
rfemur -11.9692 -5.08411 23.4064
rtibia 39.1556
rfoot -24.1487 2.16189
rtoes 15.4198
lfemur -16.7295 -3.54621 -15.1923
ltibia 37.5632
lfoot -14.1312 -21.1288
ltoes 26.8523
414
root -2.39155 23.4098 -1.73246 -31.2608 82.6272 -31.4991
lowerback 6.95045 1.50128 3.5234
upperback 2.39551 2.3823 2.98735
thorax -1.40762 1.22743 0.909431
lowerneck -13.1487 -1.94102 -8.34674
upperneck 39.9969 1.54432 0.435067
head 16.6719 0.0520336 2.14434
rclavicle -1.56046e-014 -6.36111e-015
rhumerus -30.4851 -8.00833 -79.835
rradius 32.673
rwrist -11.5532
rhand -20.5702 12.7345
rfingers 7.12502
rthumb 5.78935 -17.1664
lclavicle -1.56046e-014 -6.36111e-015
lhumerus -36.003 12.728 83.0406
lradius 30.3165
lwrist 1.9458
lhand -20.7228 21.5968
lfingers 7.12502
lthumb 5.64199 51.5017
rfemur -11.9846 -3.82771 23.4932
rtibia 39.0413
rfoot -24.0903 2.1886
rtoes 15.3105
lfemur -16.6886 -3.80625 -15.1409
ltibia 37.7789
lfoot -14.5625 -19.8908
ltoes 26.3423
415
root -2.36146 23.4033 -1.71174 -31.6099 82.7356 -32.0369
lowerback 6.36937 1.33589 3.77381
upperback 2.37442 2.14232 2.96191
thorax -1.09814 1.11113 0.77827
lowerneck -13.1904 -1.91185 -8.4681
upperneck 39.9704 1.63984 0.387894
head 16.6655 0.0638446 2.16006
rclavicle -1.10325e-014 -4.77083e-015
rhumerus -30.2991 -7.93665 -79.8042
rradius 32.7587
rwrist -11.4408
rhand -20.1475 12.5374
rfingers 7.12502
rthumb 6.19745 -17.3519
lclavicle -1.10325e-014 -4.77083e-015
lhumerus -36.3131 13.1168 82.8556
lradius 30.0785
lwrist 1.76884
lhand -20.3936 21.0579
lfingers 7.12502
lthumb 5.95979 50.9541
rfemur -11.9848 -4.73097 23.3743
rtibia 38.9293
rfoot -24.2243 3.21239
rtoes 15.7021
lfemur -16.8716 -4.04528 -15.1392
ltibia 37.9952
lfoot -14.9224 -19.6266
ltoes 25.5633
416
root -2.34554 23.3993 -1.68846 -31.0201 82.6777 -31.4863
lowerback 6.18225 1.28191 3.91931
upperback 2.35721 2.06803 2.96523
thorax -1.0076 1.07535 0.710602
lowerneck -13.3872 -1.91129 -8.95241
upperneck 40.1167 1.67547 0.762209
head 16.7879 0.04892 2.42544
rclavicle -2.5842e-015 -2.06736e-014
rhumerus -30.1699 -8.01876 -79.7123
rradius 32.8886
rwrist -11.2166
rhand -20.5434 12.6892
rfingers 7.12502
rthumb 5.81517 -17.211
lclavicle -2.5842e-015 -2.06736e-014
lhumerus -36.5511 13.2589 82.8712
lradius 29.918
lwrist 1.49502
lhand -20.0255 21.203
lfingers 7.12502
lthumb 6.31524 51.0889
rfemur -11.9575 -5.30703 23.2901
rtibia 38.9228
rfoot -24.2361 3.92998
rtoes 15.5462
lfemur -16.8923 -4.46143 -15.1188
ltibia 38.1748
lfoot -15.2215 -19.2225
ltoes 24.7825
417
root -2.34141 23.3872 -1.66652 -29.9469 82.3605 -30.2826
lowerback 6.32757 1.35697 4.18386
upperback 2.35795 2.19066 2.88337
thorax -1.07227 1.13647 0.466669
lowerneck -13.5957 -1.85923 -9.00893
upperneck 40.3383 1.69096 1.07916
head 16.9516 0.0826699 2.59099
rclavicle -2.18663e-015 -1.35174e-014
rhumerus -30.0798 -7.97295 -79.7916
rradius 33.0209
rwrist -11.5479
rhand -20.5403 12.731
rfingers 7.12502
rthumb 5.81817 -17.1691
lclavicle -2.18663e-015 -1.35174e-014
lhumerus -36.7039 12.8289 82.9948
lradius 29.7181
lwrist 1.49008
lhand -19.8735 21.248
lfingers 7.12502
lthumb 6.46194 51.1294
rfemur -11.8208 -5.17318 23.3469
rtibia 38.9095
rfoot -24.3101 4.13742
rtoes 14.8766
lfemur -16.7505 -4.88378 -15.0124
ltibia 38.3828
lfoot -15.1994 -18.7484
ltoes 25.4596
418
root -2.34558 23.3698 -1.64396 -28.7 82.0817 -28.862
lowerback 6.60174 1.4312 4.37915
upperback 2.33289 2.31597 2.74927
thorax -1.2342 1.19613 0.202506
lowerneck -13.5066 -1.8032 -8.55449
upperneck 40.2594 1.67831 0.901317
head 16.8847 0.124816 2.42399
rclavicle -3.34952e-014 -1.51076e-014
rhumerus -30.0364 -7.92216 -79.9622
rradius 33.2305
rwrist -11.9518
rhand -20.3047 12.4162
rfingers 7.12502
rthumb 6.04567 -17.4775
lclavicle -3.34952e-014 -1.51076e-014
lhumerus -36.894 12.1692 83.1343
lradius 29.4581
lwrist 1.76883
lhand -20.3907 21.0915
lfingers 7.12502
lthumb 5.96258 50.9876
rfemur -11.6658 -4.74253 23.4095
rtibia 38.8876
rfoot -24.348 4.12651
rtoes 15.1967
lfemur -16.6473 -5.22067 -14.9996
ltibia 38.6604
lfoot -15.3847 -18.149
ltoes 25.6487
419
root -2.34281 23.3602 -1.61657 -29.6146 81.8438 -29.6799
lowerback 6.67607 1.3898 4.66704
upperback 2.33861 2.28696 2.78017
thorax -1.26008 1.18283 0.0741466
lowerneck -13.3118 -1.73322 -7.91723
upperneck 39.8933 1.75046 0.29423
head 16.6408 0.173609 2.03707
rclavicle 2.39536e-014 2.8625e-014
rhumerus -29.9579 -7.8798 -80.082
rradius 33.5607
rwrist -12.1886
rhand -20.6048 12.1595
rfingers 7.12502
rthumb 5.75588 -17.7423
lclavicle 2.39536e-014 2.8625e-014
lhumerus -37.0938 12.0755 83.1394
lradius 29.1986
lwrist 1.64891
lhand -20.8111 21.1488
lfingers 7.12502
lthumb 5.55669 51.0559
rfemur -11.4898 -4.18025 23.7528
rtibia 38.8947
rfoot -24.4481 4.18077
rtoes 16.6749
lfemur -16.6528 -5.47598 -14.7015
ltibia 38.9912
lfoot -15.7622 -17.6208
ltoes 24.2158
420
root -2.31461 23.3564 -1.58917 -35.9521 82.15 -36.2481
lowerback 6.02406 0.951301 5.26777
upperback 2.32579 1.7076 3.10139
thorax -0.920485 0.905011 0.127597
lowerneck -13.2984 -1.61316 -7.90179
upperneck 39.7874 2.0077 0.0446759
head 16.5739 0.247518 1.96389
rclavicle -3.77691e-015 2.38542e-015
rhumerus -29.856 -7.66407 -80.0122
rradius 33.906
rwrist -12.1733
rhand -20.5717 12.1599
rfingers 7.12502
rthumb 5.78785 -17.741
lclavicle -3.77691e-015 2.38542e-015
lhumerus -37.3975 12.7001 83.1663
lradius 28.9844
lwrist 0.984613
lhand -20.5749 20.9679
lfingers 7.12502
lthumb 5.78478 50.8689
rfemur -11.1458 -4.91455 24.3997
rtibia 38.1203
rfoot -24.3721 4.47062
rtoes 16.1872
lfemur -17.4955 -5.80802 -13.9598
ltibia 40.221
lfoot -16.3819 -18.0494
ltoes 22.7057
421
root -2.32335 23.3581 -1.58261 -31.0671 81.2962 -31.5082
lowerback 6.10285 1.05598 5.21235
upperback 2.24061 1.85519 3.19628
thorax -1.05211 0.974144 0.243459
lowerneck -13.5173 -1.45127 -8.41405
upperneck 39.9842 2.31623 0.388536
head 16.7106 0.334691 2.26807
rclavicle 4.07509e-015 -2.3059e-014
rhumerus -29.735 -6.93897 -80.0159
rradius 34.1946
rwrist -12.3677
rhand -20.2966 12.1644
rfingers 7.12502
rthumb 6.05351 -17.7291
lclavicle 4.07509e-015 -2.3059e-014
lhumerus -37.7296 13.38 83.235
lradius 28.7879
lwrist 0.543062
lhand -20.3231 20.6726
lfingers 7.12502
lthumb 6.0279 50.5668
rfemur -10.9741 -4.01864 24.4462
rtibia 37.0886
rfoot -23.6843 4.42863
rtoes 14.7079
lfemur -18.2025 -5.78967 -14.0471
ltibia 41.7345
lfoot -17.7748 -16.8279
ltoes 19.4468
422
root -2.27096 23.3213 -1.60203 -57.261 74.3077 -59.3385
lowerback 4.50518 0.861898 15.0304
upperback 2.04584 2.06007 5.33669
thorax -0.0660682 1.21286 -2.85735
lowerneck -13.6275 -1.3519 -8.32343
upperneck 39.9987 2.40204 0.469038
head 16.736 0.388219 2.30335
rclavicle -2.08724e-015 -1.98785e-014
rhumerus -29.5616 -6.38955 -80.1815
rradius 34.3057
rwrist -12.699
rhand -20.4552 12.3912
rfingers 7.12502
rthumb 5.90034 -17.5067
lclavicle -2.08724e-015 -1.98785e-014
lhumerus -37.8682 13.3622 83.2376
lradius 28.5341
lwrist 0.466419
lhand -20.178 20.6138
lfingers 7.12502
lthumb 6.16799 50.504
rfemur -11.1197 -4.56974 34.1652
rtibia 35.4837
rfoot -22.7953 5.63187
rtoes 16.1233
lfemur -20.1855 -4.64881 -3.91884
ltibia 43.9338
lfoot -18.6216 -17.507
ltoes 18.803
